<svg width="393" height="111" viewBox="0 0 393 111" fill="none" xmlns="http://www.w3.org/2000/svg">
<path d="M0 107.993L61.1559 108" stroke="black" stroke-width="5" stroke-linecap="round"/>
<path d="M331.848 107.088L393.002 106.642" stroke="black" stroke-width="5" stroke-linecap="round"/>
<path d="M283.721 107.318H301.774" stroke="black" stroke-width="5" stroke-linecap="round"/>
<path d="M61.1562 108L61.1563 49.1638" stroke="black" stroke-width="5" stroke-linecap="round"/>
<path d="M103.264 108V49.1638" stroke="black" stroke-width="5" stroke-linecap="round"/>
<path d="M61.1562 49.1639L82.21 27.4398" stroke="black" stroke-width="5" stroke-linecap="round"/>
<path d="M82.21 27.4396L103.264 49.1637" stroke="black" stroke-width="5" stroke-linecap="round"/>
<path d="M132.338 108V20.1983" stroke="black" stroke-width="5" stroke-linecap="round"/>
<path d="M154.394 108L154.394 20.1983" stroke="black" stroke-width="5" stroke-linecap="round"/>
<path d="M103.264 107.991H132.338" stroke="black" stroke-width="5" stroke-linecap="round"/>
<path d="M132.338 20.1983L143.366 3.00008" stroke="black" stroke-width="5" stroke-linecap="round"/>
<path d="M154.394 20.1983L143.366 3.00008" stroke="black" stroke-width="5" stroke-linecap="round"/>
<path d="M178.456 108V69.0776" stroke="black" stroke-width="5" stroke-linecap="round"/>
<path d="M225.576 108V69.0776" stroke="black" stroke-width="5" stroke-linecap="round"/>
<path d="M103.264 108V49.1638" stroke="black" stroke-width="5" stroke-linecap="round"/>
<path d="M178.456 69.0776L201.515 46.4483" stroke="black" stroke-width="5" stroke-linecap="round"/>
<path d="M225.576 69.0776L201.515 46.4483" stroke="black" stroke-width="5" stroke-linecap="round"/>
<path d="M154.394 107.991H178.456" stroke="black" stroke-width="5" stroke-linecap="round"/>
<ellipse cx="143.366" cy="25.6297" rx="4.01022" ry="3.621" fill="black"/>
<path d="M257.658 108V29.25" stroke="black" stroke-width="5" stroke-linecap="round"/>
<path d="M283.725 107.095V29.2499" stroke="black" stroke-width="5" stroke-linecap="round"/>
<line x1="255.145" y1="28.5603" x2="286.237" y2="28.5603" stroke="black" stroke-width="5" stroke-linecap="round"/>
<path d="M225.576 107.991H257.658" stroke="black" stroke-width="5" stroke-linecap="round"/>
<line x1="283.225" y1="27.4396" x2="283.225" y2="3.90515" stroke="black"/>
<rect x="278.712" y="3.90527" width="5.01278" height="3.62069" fill="black"/>
<path d="M301.771 107.095V81.7499" stroke="black" stroke-width="5" stroke-linecap="round"/>
<path d="M331.848 107.095V80.8448" stroke="black" stroke-width="5" stroke-linecap="round"/>
<path d="M301.771 81.7501L314.804 68.1725" stroke="black" stroke-width="5" stroke-linecap="round"/>
<path d="M331.848 80.8448L314.804 68.1719" stroke="black" stroke-width="5" stroke-linecap="round"/>
</svg>
